<?xml version="1.0" standalone="no"?>
<!DOCTYPE svg PUBLIC "-//W3C//DTD SVG 20010904//EN"
 "http://www.w3.org/TR/2001/REC-SVG-20010904/DTD/svg10.dtd">
<svg version="1.0" xmlns="http://www.w3.org/2000/svg"
 width="2083.000000pt" height="2083.000000pt" viewBox="0 0 2083.000000 2083.000000"
 preserveAspectRatio="xMidYMid meet">
<metadata>
Created by potrace 1.11, written by Peter Selinger 2001-2013
</metadata>
<g transform="translate(0.000000,2083.000000) scale(0.100000,-0.100000)"
fill="#000000" stroke="none">
<path d="M10207 19193 c-1 0 -81 -4 -177 -8 -230 -10 -231 -10 -460 -30 -92
-8 -170 -17 -260 -30 -19 -2 -57 -7 -85 -10 -27 -3 -57 -7 -65 -9 -8 -3 -37
-7 -65 -11 -76 -9 -303 -49 -400 -70 -20 -4 -80 -16 -95 -19 -21 -4 -92 -18
-110 -22 -8 -2 -62 -15 -120 -29 -58 -15 -113 -28 -123 -30 -43 -9 -327 -88
-377 -105 -30 -10 -127 -42 -215 -70 -376 -122 -773 -286 -1159 -478 -137 -69
-269 -137 -295 -152 -25 -15 -111 -65 -191 -111 -144 -82 -395 -238 -500 -311
-30 -21 -63 -44 -73 -51 -108 -72 -488 -355 -507 -377 -3 -3 -25 -21 -50 -40
-43 -33 -79 -63 -104 -85 -6 -5 -43 -37 -81 -70 -91 -78 -79 -67 -187 -165
-125 -113 -506 -494 -599 -599 -40 -47 -81 -92 -89 -100 -20 -21 -200 -237
-277 -331 -147 -182 -361 -481 -502 -700 -40 -63 -84 -131 -96 -150 -46 -71
-168 -281 -247 -425 -74 -134 -254 -501 -312 -635 -32 -74 -67 -153 -76 -176
-96 -216 -250 -657 -339 -969 -33 -116 -104 -389 -116 -445 -39 -185 -91 -450
-102 -525 -2 -16 -8 -55 -13 -85 -5 -30 -12 -75 -15 -100 -3 -25 -8 -56 -10
-70 -5 -31 -12 -89 -20 -160 -3 -30 -8 -71 -10 -90 -10 -85 -14 -131 -30 -340
-23 -288 -23 -915 0 -1192 2 -24 6 -79 9 -123 4 -44 9 -100 12 -125 2 -25 7
-70 10 -100 3 -30 7 -66 9 -80 1 -14 6 -52 10 -85 3 -33 8 -71 10 -84 3 -13 7
-45 11 -70 10 -76 14 -104 21 -141 4 -19 7 -39 8 -45 1 -9 13 -81 19 -115 12
-67 21 -111 43 -215 13 -66 27 -131 29 -145 3 -14 16 -68 29 -121 13 -53 26
-107 29 -120 13 -70 110 -400 173 -589 19 -58 36 -112 38 -120 5 -19 152 -409
164 -435 6 -11 26 -58 45 -105 126 -312 340 -731 559 -1100 79 -133 343 -540
357 -550 4 -3 22 -27 41 -55 42 -61 176 -240 236 -315 24 -30 50 -62 56 -70
35 -44 156 -190 183 -220 377 -422 615 -660 924 -925 161 -138 153 -131 272
-226 57 -44 112 -88 123 -98 29 -24 302 -221 355 -256 25 -17 47 -32 50 -35
14 -15 132 -90 140 -90 6 0 10 -4 10 -8 0 -5 15 -16 33 -25 17 -10 51 -30 74
-45 465 -303 1180 -651 1733 -844 293 -102 624 -202 790 -238 19 -5 61 -15 92
-24 32 -9 72 -18 90 -21 18 -3 49 -10 68 -15 39 -10 251 -53 345 -69 33 -6 71
-13 85 -16 13 -3 42 -7 65 -10 22 -3 65 -10 95 -15 60 -11 107 -17 189 -26 30
-3 62 -7 72 -9 10 -2 49 -7 86 -10 37 -4 79 -8 93 -10 14 -2 66 -7 115 -10 50
-4 113 -9 140 -11 277 -23 1139 -24 1260 0 11 2 64 7 118 11 54 3 106 8 115 9
9 2 53 7 97 11 44 4 89 9 100 11 11 2 43 6 70 9 28 3 61 7 75 10 14 2 45 7 70
10 59 8 104 15 245 39 50 9 99 18 110 20 34 7 279 58 295 61 8 2 56 13 105 25
50 12 97 23 105 25 188 43 759 220 900 278 14 5 30 11 35 13 23 6 270 106 402
163 199 85 466 213 618 296 122 66 298 164 345 193 25 15 82 49 125 75 108 65
97 58 284 181 181 119 204 136 426 302 123 92 436 342 455 363 6 8 174 158
219 197 47 40 402 395 476 474 92 100 156 171 205 229 25 29 56 66 70 81 14
15 32 36 40 46 471 577 790 1063 1100 1679 141 280 265 556 345 770 130 347
202 562 276 835 41 148 108 415 115 460 3 14 11 55 19 92 8 36 17 83 21 105 3
21 9 54 14 73 4 19 12 58 16 85 4 28 8 55 10 60 1 6 5 28 8 50 4 22 8 51 11
65 2 14 9 63 15 110 6 47 13 96 15 110 2 14 6 50 10 80 3 30 8 71 10 90 15
121 31 314 42 515 9 177 9 730 0 895 -13 217 -25 386 -31 415 -2 11 -7 56 -11
100 -4 44 -9 87 -10 96 -2 8 -6 42 -9 75 -4 32 -9 68 -11 79 -2 11 -7 43 -10
70 -3 28 -8 57 -10 65 -2 8 -6 35 -9 60 -3 25 -8 54 -10 65 -15 75 -39 205
-43 230 -4 27 -12 64 -59 275 -7 36 -25 110 -39 165 -14 55 -28 110 -30 122
-8 34 -111 378 -145 483 -41 126 -140 401 -160 445 -5 11 -27 65 -49 120 -21
55 -50 125 -64 155 -13 30 -34 77 -46 104 -89 204 -314 651 -388 768 -12 21
-23 40 -23 43 0 4 -13 26 -30 50 -16 24 -30 46 -30 50 0 10 -223 360 -232 363
-4 2 -8 8 -8 13 0 5 -15 31 -33 57 -19 26 -55 79 -82 117 -523 752 -1188 1437
-1951 2010 -294 220 -641 446 -944 615 -47 26 -103 58 -125 70 -91 52 -596
300 -611 300 -2 0 -27 11 -56 24 -239 111 -707 280 -1078 390 -158 47 -573
147 -709 171 -19 3 -37 7 -40 9 -3 2 -31 7 -61 11 -30 4 -57 8 -60 10 -3 2
-24 6 -46 9 -22 4 -49 8 -59 10 -24 4 -100 16 -135 21 -31 4 -110 16 -130 20
-8 2 -46 6 -85 10 -38 4 -78 9 -88 11 -10 2 -48 6 -85 9 -37 3 -83 8 -102 10
-64 7 -184 17 -240 20 -30 2 -120 6 -200 10 -123 7 -598 13 -603 8z"/>
</g>
</svg>
